<?xml version="1.0" encoding="iso-8859-1"?>
<!-- Uploaded to: SVG Repo, www.svgrepo.com, Generator: SVG Repo Mixer Tools -->
<svg fill="#000000" height="800px" width="800px" version="1.1" id="Capa_1" xmlns="http://www.w3.org/2000/svg" xmlns:xlink="http://www.w3.org/1999/xlink" 
	 viewBox="0 0 489.987 489.987" xml:space="preserve">
<g>
	<path d="M446.687,436.8l-75-250.8l56.2-158.9c3.1-6.3,4.8-23.2-18.8-27.1h-101.1c-11.5,0-20.9,9.4-20.9,20.9
		c0,22.9-18.8,41.7-41.7,41.7c-22.9,0-41.7-18.8-41.7-41.7c0-11.5-9.4-20.9-20.9-20.9h-101c-22.3,2.5-21.9,20.9-19.8,27.1
		l56.7,160.5c0,0-75.1,251.7-75.2,252.9c-2.5,7.7-0.4,16.8,5.9,22.4c28,24.8,82.7,41.2,134.5,9.9c25,15.5,75.8,29.2,120.9,0
		c58.8,35.4,117,7.2,134.5-9.9C443.187,459,449.887,445.7,446.687,436.8z M166.187,40.7c8.3,35.4,41.7,61.5,79.2,61.5
		s69.9-26.1,79.2-61.5h54.2l-45.8,130.3h-177.2l-43.8-130.3H166.187z M318.487,431.6c-3.8-3.4-15.7-9-27.1,0
		c-27.3,21.5-67.9,23.1-93.8,0c-10.6-9.5-23.3-3.4-27.1,0c-23.2,20.4-58.7,22.6-84.6,6.8l67.9-226.8h181.4l67.9,226.8
		C377.087,454.3,341.587,452,318.487,431.6z"/>
</g>
</svg>